<svg width="512" height="512" viewBox="0 0 512 512" fill="none" xmlns="http://www.w3.org/2000/svg">
<g filter="url(#filter0_d_5:9)">
<path d="M331.997 498.162H151.047C149.425 498.162 147.854 497.591 146.609 496.551C145.365 495.51 144.526 494.065 144.239 492.468L111.664 311.51C111.485 310.514 111.527 309.491 111.786 308.512C112.046 307.534 112.517 306.625 113.166 305.848C113.815 305.071 114.627 304.447 115.544 304.018C116.461 303.589 117.46 303.367 118.473 303.367H364.572C365.584 303.367 366.584 303.589 367.501 304.018C368.418 304.447 369.229 305.071 369.878 305.848C370.528 306.625 370.999 307.534 371.258 308.512C371.517 309.491 371.559 310.514 371.38 311.51L338.813 492.468C338.525 494.066 337.685 495.512 336.439 496.553C335.193 497.594 333.621 498.163 331.997 498.162V498.162ZM156.831 484.324H326.213L356.324 317.205H126.748L156.831 484.324Z" fill="#272937"/>
<path d="M89.7498 313.672C87.811 311.733 86.7203 309.104 86.7167 306.363V267.915C86.722 265.174 87.8136 262.547 89.7521 260.61C91.6907 258.673 94.3182 257.583 97.0589 257.579H385.985C388.726 257.583 391.354 258.673 393.292 260.61C395.231 262.548 396.322 265.175 396.328 267.915V306.369C396.322 309.11 395.231 311.737 393.292 313.674C391.354 315.611 388.726 316.701 385.985 316.705H97.0593C94.3173 316.701 91.6887 315.61 89.7498 313.672ZM99.5545 303.367V303.867H100.055H382.99H383.49V303.367V270.91V270.41H382.99H100.055H99.5545V270.91V303.367Z" fill="#272937" stroke="black"/>
<path d="M245.006 270.91H244.48C242.651 270.772 240.951 269.913 239.755 268.523C238.558 267.132 237.963 265.323 238.101 263.493C239.196 248.861 241.665 234.364 245.476 220.195C259.111 168.727 289.466 123.252 331.769 90.9215C332.49 90.3691 333.314 89.9642 334.192 89.7299C335.07 89.4956 335.985 89.4365 336.886 89.556C337.786 89.6755 338.655 89.9712 339.441 90.4263C340.228 90.8814 340.917 91.487 341.469 92.2084C342.022 92.9299 342.427 93.753 342.661 94.631C342.895 95.5089 342.954 96.4244 342.835 97.3251C342.715 98.2259 342.42 99.0943 341.965 99.8807C341.509 100.667 340.904 101.356 340.182 101.909C300.312 132.376 271.701 175.232 258.851 223.737C255.272 237.081 252.955 250.732 251.932 264.51C251.8 266.255 251.013 267.885 249.728 269.073C248.443 270.26 246.756 270.917 245.006 270.91V270.91Z" fill="#272937"/>
<path d="M330.33 189.488C309.717 188.686 289.621 182.808 271.824 172.378C270.474 171.652 269.403 170.499 268.779 169.098C267.866 167.023 246.639 118.161 273.539 74.8627C296.822 37.4521 348.022 16.9167 425.728 13.8378C426.679 13.7926 427.628 13.9479 428.515 14.2936C429.402 14.6393 430.206 15.1676 430.876 15.8443C431.55 16.5139 432.08 17.3154 432.431 18.1987C432.782 19.082 432.947 20.0281 432.917 20.9782C432.758 26.0082 428.24 144.612 367.187 179.809C355.983 186.261 343.259 189.603 330.33 189.488ZM280.59 161.363C312.265 177.844 339.055 180.044 360.24 167.832C406.514 141.146 416.616 54.2028 418.595 28.0355C350.097 31.8685 305.304 50.0307 285.322 82.0653C265.168 114.411 277.137 152.112 280.583 161.356L280.59 161.363Z" fill="#272937"/>
<path d="M252.16 228.906C250.792 228.906 249.454 228.5 248.316 227.741C247.178 226.981 246.291 225.901 245.767 224.637C237.73 205.234 225.89 187.638 210.945 172.884C195.999 158.13 178.252 146.518 158.748 138.731C157.886 138.407 157.098 137.913 156.43 137.28C155.761 136.647 155.226 135.886 154.855 135.044C154.484 134.201 154.285 133.293 154.27 132.372C154.255 131.452 154.423 130.537 154.766 129.683C155.108 128.828 155.618 128.05 156.265 127.395C156.912 126.74 157.683 126.221 158.534 125.868C159.384 125.514 160.296 125.334 161.217 125.338C162.137 125.342 163.048 125.529 163.895 125.89C185.109 134.361 204.412 146.993 220.667 163.041C236.923 179.089 249.802 198.227 258.546 219.33C258.983 220.381 259.154 221.524 259.044 222.657C258.934 223.79 258.546 224.878 257.914 225.825C257.282 226.773 256.427 227.549 255.423 228.087C254.419 228.624 253.298 228.905 252.16 228.906V228.906Z" fill="#272937"/>
<path d="M168.538 198.331C164.134 198.326 159.747 197.768 155.482 196.67C106.358 184.119 80.4739 103.569 79.3738 100.144C79.088 99.2351 78.9931 98.2765 79.0952 97.3287C79.1973 96.381 79.4941 95.4645 79.967 94.6369C80.44 93.8093 81.0788 93.0883 81.8435 92.5192C82.6082 91.9501 83.4822 91.5451 84.4108 91.3297C138.378 78.5228 177.567 82.8956 200.946 104.323C228.179 129.287 222.9 167.466 222.665 169.085C222.434 170.604 221.704 172.004 220.589 173.063C203.126 189.869 185.669 198.331 168.538 198.331ZM95.1213 103.092C102.352 122.347 124.873 174.564 158.928 183.248C174.682 187.261 191.585 181.068 209.18 164.809C209.726 157.08 209.982 131.293 191.502 114.432C172.717 97.3146 140.309 93.5023 95.1213 103.092V103.092Z" fill="#272937"/>
</g>
<defs>
<filter id="filter0_d_5:9" x="-4" y="0" width="520" height="520" filterUnits="userSpaceOnUse" color-interpolation-filters="sRGB">
<feFlood flood-opacity="0" result="BackgroundImageFix"/>
<feColorMatrix in="SourceAlpha" type="matrix" values="0 0 0 0 0 0 0 0 0 0 0 0 0 0 0 0 0 0 127 0" result="hardAlpha"/>
<feOffset dy="4"/>
<feGaussianBlur stdDeviation="2"/>
<feComposite in2="hardAlpha" operator="out"/>
<feColorMatrix type="matrix" values="0 0 0 0 0 0 0 0 0 0 0 0 0 0 0 0 0 0 0.25 0"/>
<feBlend mode="normal" in2="BackgroundImageFix" result="effect1_dropShadow_5:9"/>
<feBlend mode="normal" in="SourceGraphic" in2="effect1_dropShadow_5:9" result="shape"/>
</filter>
</defs>
</svg>
